<svg data-cached="true" xmlns="http://www.w3.org/2000/svg" width="753" height="531" viewBox="0 0 753 531" preserveAspectRatio="xMidYMid meet"><svg id="__background" x="0" y="0" width="753" height="531" preserveAspectRatio="xMidYMid meet"><rect x="0" y="0" width="753" height="531" fill="#ffffff" stroke="none" stroke-width="0px"/></svg><g id="__padding" transform="translate(26 26)"><svg id="data" x="0" y="0" width="701" height="479" viewBox="0 0 695 473" preserveAspectRatio="xMinYMid meet"><path d="M0 0L0 473L695 473L695 0ZM3 3L3 470L692 470L692 3Z" fill="#ffffff" fill-rule="evenodd"/><path fill="#000000" d="M62 440 L68 440 L68 8 L62 8 Z"/><path fill="#000000" d="M74 440 L80 440 L80 8 L74 8 Z"/><path fill="#000000" d="M86 408 L104 408 L104 8 L86 8 Z"/><path fill="#000000" d="M110 408 L122 408 L122 8 L110 8 Z"/><path fill="#000000" d="M140 408 L146 408 L146 8 L140 8 Z"/><path fill="#000000" d="M158 408 L164 408 L164 8 L158 8 Z"/><path fill="#000000" d="M176 408 L182 408 L182 8 L176 8 Z"/><path fill="#000000" d="M188 408 L206 408 L206 8 L188 8 Z"/><path fill="#000000" d="M212 408 L224 408 L224 8 L212 8 Z"/><path fill="#000000" d="M230 408 L248 408 L248 8 L230 8 Z"/><path fill="#000000" d="M272 408 L278 408 L278 8 L272 8 Z"/><path fill="#000000" d="M284 408 L290 408 L290 8 L284 8 Z"/><path fill="#000000" d="M308 408 L314 408 L314 8 L308 8 Z"/><path fill="#000000" d="M320 408 L332 408 L332 8 L320 8 Z"/><path fill="#000000" d="M338 440 L344 440 L344 8 L338 8 Z"/><path fill="#000000" d="M350 440 L356 440 L356 8 L350 8 Z"/><path fill="#000000" d="M362 408 L374 408 L374 8 L362 8 Z"/><path fill="#000000" d="M380 408 L392 408 L392 8 L380 8 Z"/><path fill="#000000" d="M404 408 L422 408 L422 8 L404 8 Z"/><path fill="#000000" d="M428 408 L434 408 L434 8 L428 8 Z"/><path fill="#000000" d="M446 408 L458 408 L458 8 L446 8 Z"/><path fill="#000000" d="M464 408 L476 408 L476 8 L464 8 Z"/><path fill="#000000" d="M488 408 L506 408 L506 8 L488 8 Z"/><path fill="#000000" d="M512 408 L518 408 L518 8 L512 8 Z"/><path fill="#000000" d="M530 408 L536 408 L536 8 L530 8 Z"/><path fill="#000000" d="M548 408 L554 408 L554 8 L548 8 Z"/><path fill="#000000" d="M572 408 L578 408 L578 8 L572 8 Z"/><path fill="#000000" d="M584 408 L590 408 L590 8 L584 8 Z"/><path fill="#000000" d="M614 440 L620 440 L620 8 L614 8 Z"/><path fill="#000000" d="M626 440 L632 440 L632 8 L626 8 Z"/><path d="M14.82 424.69Q11.96 427.69 11.96 431.88Q11.96 435.94 14.69 438.50Q17.30 441.00 21.73 441.00Q29.47 441.00 30.84 436.44Q31.49 434.38 31.49 431.88Q31.49 427.19 28.76 424.44Q26.09 421.63 21.73 421.63Q17.62 421.63 14.82 424.69M10.53 442.38Q6.10 438.19 6.10 431.88Q6.10 425.38 10.79 420.69Q15.35 416.00 21.73 416.00Q28.30 416.00 32.79 420.38Q37.35 424.75 37.35 431.88Q37.35 436.31 35.98 439.88Q34.61 443.44 32.14 447.56Q26.74 456.63 18.93 463.56Q18.08 464.31 17.10 464.31Q16.00 464.31 15.15 463.50Q14.30 462.69 14.30 461.50Q14.30 460.31 15.22 459.44Q21.40 453.75 25.83 446.88L26.15 446.25L25.50 446.38Q23.81 446.63 21.73 446.63Q14.82 446.63 10.53 442.38Z" fill="#000000"/><path d="M90.95 421.13Q90.10 420.25 90.10 419.07Q90.10 417.88 90.95 417.07Q91.79 416.25 93.03 416.25L118.42 416.25Q119.66 416.25 120.50 417.13Q121.35 417.94 121.35 419.07Q121.35 423.82 117.51 429.38Q116.34 431.13 112.95 435.19Q109.57 439.31 108.13 441.88Q103.90 449.38 103.90 461.44Q103.90 462.63 103.06 463.50Q102.21 464.31 101.10 464.31Q100.00 464.31 99.15 463.50Q98.30 462.69 98.30 461.44Q98.30 447.81 103.25 439.00Q104.75 436.44 108.13 432.13Q111.58 427.75 112.69 426.13Q114.25 423.63 114.84 422.38L114.97 421.94L93.03 421.94Q91.86 421.94 90.95 421.13Z" fill="#000000"/><path d="M142.65 422.88Q140.17 424.13 140.17 426.50Q140.17 428.07 140.76 429.25Q141.35 430.44 142.71 431.44Q144.01 432.38 144.86 432.88Q145.77 433.38 147.59 434.25L147.73 434.25L147.86 434.25Q149.68 433.44 150.59 432.94Q151.50 432.44 152.80 431.50Q154.10 430.50 154.69 429.32Q155.28 428.07 155.28 426.50Q155.28 424.13 152.80 422.88Q150.39 421.63 147.73 421.63Q145.06 421.63 142.65 422.88M147.73 440.69Q137.90 445.63 137.90 451.50Q137.90 455.00 140.82 456.94Q143.56 458.88 147.73 458.88L149.03 458.88Q152.48 458.88 154.95 456.69Q157.49 454.50 157.49 451.50Q157.49 445.56 147.99 440.69L147.86 440.56L147.73 440.69M136.59 460.88Q132.10 457.25 132.10 451.50Q132.10 443.94 141.35 437.81L141.74 437.56L141.35 437.31Q134.31 433.19 134.31 426.50Q134.31 421.94 138.48 419.00Q142.58 416.00 147.73 416.00Q152.80 416.00 156.97 419.00Q161.14 422.00 161.14 426.50Q161.14 430.19 159.31 432.75Q157.42 435.25 154.10 437.31L153.71 437.56L154.10 437.81Q163.35 443.94 163.35 451.50Q163.35 456.44 159.57 460.25Q155.80 464.06 150.46 464.50L147.73 464.50Q141.02 464.50 136.59 460.88Z" fill="#000000"/><path d="M182.82 424.69Q179.96 427.69 179.96 431.88Q179.96 435.94 182.69 438.50Q185.30 441.00 189.73 441.00Q197.47 441.00 198.84 436.44Q199.49 434.38 199.49 431.88Q199.49 427.19 196.76 424.44Q194.09 421.63 189.73 421.63Q185.62 421.63 182.82 424.69M178.53 442.38Q174.10 438.19 174.10 431.88Q174.10 425.38 178.79 420.69Q183.35 416.00 189.73 416.00Q196.30 416.00 200.79 420.38Q205.35 424.75 205.35 431.88Q205.35 436.31 203.98 439.88Q202.61 443.44 200.14 447.56Q194.74 456.63 186.93 463.56Q186.08 464.31 185.10 464.31Q184.00 464.31 183.15 463.50Q182.30 462.69 182.30 461.50Q182.30 460.31 183.22 459.44Q189.40 453.75 193.83 446.88L194.15 446.25L193.50 446.38Q191.81 446.63 189.73 446.63Q182.82 446.63 178.53 442.38Z" fill="#000000"/><path d="M226.65 422.88Q224.17 424.13 224.17 426.50Q224.17 428.07 224.76 429.25Q225.35 430.44 226.71 431.44Q228.01 432.38 228.86 432.88Q229.77 433.38 231.59 434.25L231.73 434.25L231.86 434.25Q233.68 433.44 234.59 432.94Q235.50 432.44 236.80 431.50Q238.10 430.50 238.69 429.32Q239.28 428.07 239.28 426.50Q239.28 424.13 236.80 422.88Q234.39 421.63 231.73 421.63Q229.06 421.63 226.65 422.88M231.73 440.69Q221.90 445.63 221.90 451.50Q221.90 455.00 224.82 456.94Q227.56 458.88 231.73 458.88L233.03 458.88Q236.48 458.88 238.95 456.69Q241.49 454.50 241.49 451.50Q241.49 445.56 231.99 440.69L231.86 440.56L231.73 440.69M220.59 460.88Q216.10 457.25 216.10 451.50Q216.10 443.94 225.35 437.81L225.74 437.56L225.35 437.31Q218.31 433.19 218.31 426.50Q218.31 421.94 222.48 419.00Q226.58 416.00 231.73 416.00Q236.80 416.00 240.97 419.00Q245.14 422.00 245.14 426.50Q245.14 430.19 243.31 432.75Q241.42 435.25 238.10 437.31L237.71 437.56L238.10 437.81Q247.35 443.94 247.35 451.50Q247.35 456.44 243.57 460.25Q239.80 464.06 234.46 464.50L231.73 464.50Q225.02 464.50 220.59 460.88Z" fill="#000000"/><path d="M262.66 460.44Q258.30 456.38 258.10 449.69L258.10 448.94Q258.10 441.13 262.59 434.00Q264.42 431.06 267.02 427.82Q269.56 424.50 271.32 422.57Q273.07 420.57 276.33 417.00Q277.05 416.19 278.35 416.19Q279.45 416.19 280.30 417.07Q281.15 417.88 281.15 419.00Q281.15 420.07 280.43 420.94Q273.07 428.94 269.62 433.75L269.17 434.38L269.88 434.25Q271.77 433.88 273.73 433.88Q280.82 433.88 285.05 438.13Q289.35 442.44 289.35 449.69Q289.35 456.25 284.92 460.38Q280.50 464.50 273.73 464.50Q266.95 464.50 262.66 460.44M266.56 442.25Q263.96 444.94 263.96 449.69Q263.96 453.94 266.69 456.44Q269.36 458.88 273.73 458.88Q278.02 458.88 280.69 456.38Q283.49 453.88 283.49 449.69Q283.49 444.81 280.95 442.19Q278.48 439.50 273.73 439.50Q269.10 439.50 266.56 442.25Z" fill="#000000"/><path d="M308.82 424.69Q305.96 427.69 305.96 431.88Q305.96 435.94 308.69 438.50Q311.30 441.00 315.73 441.00Q323.47 441.00 324.84 436.44Q325.49 434.38 325.49 431.88Q325.49 427.19 322.76 424.44Q320.09 421.63 315.73 421.63Q311.62 421.63 308.82 424.69M304.53 442.38Q300.10 438.19 300.10 431.88Q300.10 425.38 304.79 420.69Q309.35 416.00 315.73 416.00Q322.30 416.00 326.79 420.38Q331.35 424.75 331.35 431.88Q331.35 436.31 329.98 439.88Q328.61 443.44 326.14 447.56Q320.74 456.63 312.93 463.56Q312.08 464.31 311.10 464.31Q310.00 464.31 309.15 463.50Q308.30 462.69 308.30 461.50Q308.30 460.31 309.22 459.44Q315.40 453.75 319.83 446.88L320.15 446.25L319.50 446.38Q317.81 446.63 315.73 446.63Q308.82 446.63 304.53 442.38Z" fill="#000000"/><path d="M368.05 424.07Q367.21 423.19 367.21 422.13Q367.21 420.57 368.44 419.75Q374.37 416.00 381.73 416.00Q387.65 416.00 391.62 419.63Q395.66 423.19 395.66 429.00Q395.66 431.31 394.81 433.44Q393.96 435.63 392.86 437.00Q391.82 438.38 389.73 440.06Q387.65 441.75 386.54 442.50Q385.50 443.25 383.22 444.69Q380.75 446.25 379.64 447.06Q378.54 447.88 376.97 449.50Q375.41 451.06 374.69 453.06Q373.98 455.00 373.85 457.69L373.85 458.00L393.12 458.00Q394.35 458.00 395.20 458.88Q396.05 459.69 396.05 460.81Q396.05 461.94 395.14 462.81Q394.29 463.63 393.12 463.63L370.85 463.63Q369.68 463.63 368.77 462.81Q367.92 461.94 367.92 460.81L367.92 459.50Q367.92 454.63 368.58 452.50Q369.68 448.75 372.74 445.81Q375.80 442.81 380.23 439.94Q386.35 436.00 387.97 433.75Q389.80 431.50 389.80 429.00Q389.80 425.69 387.39 423.63Q385.11 421.63 381.73 421.63Q375.87 421.63 371.83 424.38Q371.11 424.88 370.14 424.88Q368.97 424.88 368.05 424.07Z" fill="#000000"/><path d="M416.82 424.69Q413.96 427.69 413.96 431.88Q413.96 435.94 416.69 438.50Q419.30 441.00 423.73 441.00Q431.47 441.00 432.84 436.44Q433.49 434.38 433.49 431.88Q433.49 427.19 430.76 424.44Q428.09 421.63 423.73 421.63Q419.62 421.63 416.82 424.69M412.53 442.38Q408.10 438.19 408.10 431.88Q408.10 425.38 412.79 420.69Q417.35 416.00 423.73 416.00Q430.30 416.00 434.79 420.38Q439.35 424.75 439.35 431.88Q439.35 436.31 437.98 439.88Q436.61 443.44 434.14 447.56Q428.74 456.63 420.93 463.56Q420.08 464.31 419.10 464.31Q418.00 464.31 417.15 463.50Q416.30 462.69 416.30 461.50Q416.30 460.31 417.22 459.44Q423.40 453.75 427.83 446.88L428.15 446.25L427.50 446.38Q425.81 446.63 423.73 446.63Q416.82 446.63 412.53 442.38Z" fill="#000000"/><path d="M452.05 424.07Q451.21 423.19 451.21 422.13Q451.21 420.57 452.44 419.75Q458.37 416.00 465.73 416.00Q471.65 416.00 475.62 419.63Q479.66 423.19 479.66 429.00Q479.66 431.31 478.81 433.44Q477.96 435.63 476.86 437.00Q475.82 438.38 473.73 440.06Q471.65 441.75 470.54 442.50Q469.50 443.25 467.22 444.69Q464.75 446.25 463.64 447.06Q462.54 447.88 460.97 449.50Q459.41 451.06 458.69 453.06Q457.98 455.00 457.85 457.69L457.85 458.00L477.12 458.00Q478.35 458.00 479.20 458.88Q480.05 459.69 480.05 460.81Q480.05 461.94 479.14 462.81Q478.29 463.63 477.12 463.63L454.85 463.63Q453.68 463.63 452.77 462.81Q451.92 461.94 451.92 460.81L451.92 459.50Q451.92 454.63 452.58 452.50Q453.68 448.75 456.74 445.81Q459.80 442.81 464.23 439.94Q470.35 436.00 471.97 433.75Q473.80 431.50 473.80 429.00Q473.80 425.69 471.39 423.63Q469.11 421.63 465.73 421.63Q459.87 421.63 455.83 424.38Q455.11 424.88 454.14 424.88Q452.97 424.88 452.05 424.07Z" fill="#000000"/><path d="M500.82 424.69Q497.96 427.69 497.96 431.88Q497.96 435.94 500.69 438.50Q503.30 441.00 507.73 441.00Q515.47 441.00 516.84 436.44Q517.49 434.38 517.49 431.88Q517.49 427.19 514.76 424.44Q512.09 421.63 507.73 421.63Q503.62 421.63 500.82 424.69M496.53 442.38Q492.10 438.19 492.10 431.88Q492.10 425.38 496.79 420.69Q501.35 416.00 507.73 416.00Q514.30 416.00 518.79 420.38Q523.35 424.75 523.35 431.88Q523.35 436.31 521.98 439.88Q520.61 443.44 518.14 447.56Q512.74 456.63 504.93 463.56Q504.08 464.31 503.10 464.31Q502.00 464.31 501.15 463.50Q500.30 462.69 500.30 461.50Q500.30 460.31 501.22 459.44Q507.40 453.75 511.83 446.88L512.15 446.25L511.50 446.38Q509.81 446.63 507.73 446.63Q500.82 446.63 496.53 442.38Z" fill="#000000"/><path d="M544.65 422.88Q542.17 424.13 542.17 426.50Q542.17 428.07 542.76 429.25Q543.35 430.44 544.71 431.44Q546.01 432.38 546.86 432.88Q547.77 433.38 549.59 434.25L549.73 434.25L549.86 434.25Q551.68 433.44 552.59 432.94Q553.50 432.44 554.80 431.50Q556.10 430.50 556.69 429.32Q557.28 428.07 557.28 426.50Q557.28 424.13 554.80 422.88Q552.39 421.63 549.73 421.63Q547.06 421.63 544.65 422.88M549.73 440.69Q539.90 445.63 539.90 451.50Q539.90 455.00 542.82 456.94Q545.56 458.88 549.73 458.88L551.03 458.88Q554.48 458.88 556.95 456.69Q559.49 454.50 559.49 451.50Q559.49 445.56 549.99 440.69L549.86 440.56L549.73 440.69M538.59 460.88Q534.10 457.25 534.10 451.50Q534.10 443.94 543.35 437.81L543.74 437.56L543.35 437.31Q536.31 433.19 536.31 426.50Q536.31 421.94 540.48 419.00Q544.58 416.00 549.73 416.00Q554.80 416.00 558.97 419.00Q563.14 422.00 563.14 426.50Q563.14 430.19 561.31 432.75Q559.42 435.25 556.10 437.31L555.71 437.56L556.10 437.81Q565.35 443.94 565.35 451.50Q565.35 456.44 561.57 460.25Q557.80 464.06 552.46 464.50L549.73 464.50Q543.02 464.50 538.59 460.88Z" fill="#000000"/><path d="M580.66 460.44Q576.30 456.38 576.10 449.69L576.10 448.94Q576.10 441.13 580.59 434.00Q582.42 431.06 585.02 427.82Q587.56 424.50 589.32 422.57Q591.07 420.57 594.33 417.00Q595.05 416.19 596.35 416.19Q597.45 416.19 598.30 417.07Q599.15 417.88 599.15 419.00Q599.15 420.07 598.43 420.94Q591.07 428.94 587.62 433.75L587.17 434.38L587.88 434.25Q589.77 433.88 591.73 433.88Q598.82 433.88 603.05 438.13Q607.35 442.44 607.35 449.69Q607.35 456.25 602.92 460.38Q598.50 464.50 591.73 464.50Q584.95 464.50 580.66 460.44M584.56 442.25Q581.96 444.94 581.96 449.69Q581.96 453.94 584.69 456.44Q587.36 458.88 591.73 458.88Q596.02 458.88 598.69 456.38Q601.49 453.88 601.49 449.69Q601.49 444.81 598.95 442.19Q596.48 439.50 591.73 439.50Q587.10 439.50 584.56 442.25Z" fill="#000000"/></svg></g></svg>