<?xml version="1.0" encoding="UTF-8" standalone="no"?>
<!-- Created with Inkscape (http://www.inkscape.org/) -->

<svg
   width="45.373127mm"
   height="34.414871mm"
   viewBox="-2 -2 47.280002 35.861209"
   version="1.1"
   id="svg10374"
   inkscape:version="1.3.2 (091e20ef0f, 2023-11-25)"
   sodipodi:docname="slat_name.svg"
   inkscape:export-filename="D:\VR\03_軟體自由協會\CIS_VI的設計\stal_vi_201709_01.png"
   inkscape:export-xdpi="300"
   inkscape:export-ydpi="300"
   xmlns:inkscape="http://www.inkscape.org/namespaces/inkscape"
   xmlns:sodipodi="http://sodipodi.sourceforge.net/DTD/sodipodi-0.dtd"
   xmlns="http://www.w3.org/2000/svg"
   xmlns:svg="http://www.w3.org/2000/svg"
   xmlns:rdf="http://www.w3.org/1999/02/22-rdf-syntax-ns#"
   xmlns:cc="http://creativecommons.org/ns#"
   xmlns:dc="http://purl.org/dc/elements/1.1/">
  <defs
     id="defs10368" />
  <sodipodi:namedview
     id="base"
     pagecolor="#ffffff"
     bordercolor="#666666"
     borderopacity="1.0"
     inkscape:pageopacity="0.0"
     inkscape:pageshadow="2"
     inkscape:zoom="1"
     inkscape:cx="85.5"
     inkscape:cy="65.5"
     inkscape:document-units="mm"
     inkscape:current-layer="layer1"
     showgrid="false"
     inkscape:pagecheckerboard="true"
     inkscape:showpageshadow="2"
     inkscape:deskcolor="#d1d1d1"
     inkscape:window-width="1920"
     inkscape:window-height="1007"
     inkscape:window-x="0"
     inkscape:window-y="0"
     inkscape:window-maximized="1" />
  <metadata
     id="metadata10371">
    <rdf:RDF>
      <cc:Work
         rdf:about="">
        <dc:format>image/svg+xml</dc:format>
        <dc:type
           rdf:resource="http://purl.org/dc/dcmitype/StillImage" />
      </cc:Work>
    </rdf:RDF>
  </metadata>
  <g
     inkscape:label="圖層 1"
     inkscape:groupmode="layer"
     id="layer1"
     transform="translate(-98.584443,-141.60154)">
    <g
       id="g15095"
       transform="matrix(0.41772253,0,0,0.39275304,152.80445,75.715785)">
      <g
         style="display:inline;fill:#000000;stroke-width:0.655006"
         transform="matrix(0.70882931,0,0,0.70882931,-97.861126,223.89077)"
         id="g15093"
         inkscape:export-xdpi="300"
         inkscape:export-ydpi="300">
        <g
           aria-label="中華民國軟體自由協會"
           transform="matrix(0.97247865,0,0,1.0283002,-275.51224,0)"
           style="font-style:normal;font-weight:normal;font-size:62.7344px;line-height:40.7774px;font-family:sans-serif;letter-spacing:0px;word-spacing:0px;display:inline;fill:#666666;fill-opacity:1;stroke:none;stroke-width:3.54509"
           id="text15053">
          <path
             d="m 251.71444,33.421792 v -2.692624 h 2.8929 v 2.692624 z m -3.96105,0 v -2.692624 h 2.88177 v 2.692624 z m 3.96105,-3.70514 v -1.936019 h -1.07928 v 1.936019 h -3.91654 v 5.374122 h 1.03477 v -0.656466 h 2.88177 v 3.538242 h 1.07928 v -3.538242 h 2.8929 v 0.600833 h 1.07928 v -5.318489 z"
             style="font-style:normal;font-variant:normal;font-weight:500;font-stretch:normal;font-size:11.1265px;line-height:11.7979px;font-family:'Noto Sans T Chinese';-inkscape-font-specification:'Noto Sans T Chinese Medium';letter-spacing:2.52957px;fill:#666666;fill-opacity:1;stroke-width:3.54509"
             id="path15284"
             inkscape:connector-curvature="0" />
          <path
             d="m 266.2273,30.161714 h 1.01251 v -0.756605 h 2.48122 v -0.912377 h -2.48122 v -0.723226 h -1.01251 v 0.723226 h -1.17942 v 0.912377 h 1.17942 z m -3.80528,0 h 1.01251 v -0.756605 h 1.2128 v -0.912377 h -1.2128 v -0.723226 h -1.01251 v 0.723226 h -2.44784 v 0.912377 h 2.44784 z m -0.75661,1.390818 v 0.656466 h -1.49095 v 0.878998 h 1.49095 v 0.712099 h 0.96801 v -0.712099 h 1.19054 v -0.878998 h -1.19054 v -0.656466 z m 8.18914,3.393597 v -0.90125 h -4.5285 v -2.737131 h 4.23921 v -0.86787 h -9.3908 v 0.86787 h 4.13907 v 2.737131 h -4.41724 v 0.90125 h 4.41724 v 0.767732 H 260.486 v 0.86787 h 3.82753 v 1.401945 h 1.01252 v -1.401945 h 3.86091 v -0.86787 h -3.86091 v -0.767732 z m -1.8025,-1.146034 V 33.04349 h 1.44645 v -0.878998 h -1.44645 v -0.61196 h -0.95688 v 0.61196 h -1.24618 v 0.878998 h 1.24618 v 0.756605 z"
             style="font-style:normal;font-variant:normal;font-weight:500;font-stretch:normal;font-size:11.1265px;line-height:11.7979px;font-family:'Noto Sans T Chinese';-inkscape-font-specification:'Noto Sans T Chinese Medium';letter-spacing:2.52957px;fill:#666666;fill-opacity:1;stroke-width:3.54509"
             id="path15286"
             inkscape:connector-curvature="0" />
          <path
             d="m 275.69983,33.177008 v -1.502084 h 2.70375 c 0.0334,0.511821 0.10014,1.023643 0.20028,1.502084 z m 5.81918,-3.905418 v 1.446451 h -5.81918 V 29.27159 Z m 1.84701,4.873428 v -0.96801 h -3.68289 c -0.10014,-0.467315 -0.17802,-0.990263 -0.2114,-1.502084 h 3.09318 v -3.360217 h -7.94436 v 7.933228 c 0,0.467315 -0.28929,0.745479 -0.52294,0.867871 0.17802,0.211404 0.40055,0.656466 0.47844,0.93463 0.30042,-0.178025 0.76773,-0.289291 3.88316,-1.057022 -0.0556,-0.233658 -0.11126,-0.689846 -0.11126,-0.979136 l -2.64812,0.600833 v -2.470093 h 3.12656 c 0.63421,2.169676 1.86926,3.716266 3.32684,3.716266 0.86787,0 1.26842,-0.411682 1.42419,-2.12517 -0.27816,-0.08901 -0.66759,-0.28929 -0.90125,-0.500695 -0.0556,1.134908 -0.17802,1.602223 -0.47844,1.602223 -0.82336,0.01113 -1.70236,-1.090402 -2.24756,-2.692624 z"
             style="font-style:normal;font-variant:normal;font-weight:500;font-stretch:normal;font-size:11.1265px;line-height:11.7979px;font-family:'Noto Sans T Chinese';-inkscape-font-specification:'Noto Sans T Chinese Medium';letter-spacing:2.52957px;fill:#666666;fill-opacity:1;stroke-width:3.54509"
             id="path15288"
             inkscape:connector-curvature="0" />
          <path
             d="m 294.14036,31.686051 c -0.1669,0.623086 -0.38943,1.201667 -0.67872,1.724615 -0.13352,-0.611961 -0.24478,-1.346313 -0.32267,-2.136297 h 2.16968 v -0.767732 h -0.63421 l 0.45618,-0.500695 c -0.24478,-0.25591 -0.72322,-0.567454 -1.12378,-0.756605 l -0.47844,0.489568 c 0.38943,0.200278 0.84562,0.511821 1.07928,0.767732 h -1.53547 c -0.0222,-0.35605 -0.0445,-0.712099 -0.0556,-1.068149 h -0.879 c 0.0223,0.35605 0.0445,0.712099 0.0779,1.068149 h -3.19332 v 0.767732 h 3.26008 c 0.12239,1.168287 0.30041,2.236435 0.55633,3.082053 -0.20028,0.233658 -0.41169,0.467315 -0.63422,0.667593 l -0.0445,-0.61196 c -1.2128,0.178025 -2.41446,0.367176 -3.24896,0.467315 l 0.14465,0.778858 c 0.85674,-0.144645 1.93602,-0.333796 3.01529,-0.522948 -0.26703,0.222531 -0.5452,0.422809 -0.85674,0.600834 0.17802,0.144645 0.47844,0.467315 0.58971,0.64534 0.51182,-0.32267 0.96801,-0.723226 1.37969,-1.168288 0.26704,0.500695 0.58971,0.834491 1.00139,0.93463 0.65646,0.233658 1.10153,-0.189151 1.24617,-1.457578 -0.18915,-0.08901 -0.50069,-0.300416 -0.67872,-0.478441 -0.0556,0.678719 -0.14464,1.123781 -0.28929,1.090402 -0.26704,-0.04451 -0.50069,-0.35605 -0.68984,-0.834491 0.51182,-0.756606 0.9235,-1.624476 1.19054,-2.625866 z m -3.01529,1.735741 h -1.05703 v -0.968009 h 1.05703 z m -1.758,-1.557716 v 2.147423 h 2.48122 v -2.147423 z m -0.85674,4.739908 v -7.3769 h 7.26563 v 7.3769 z m -0.97914,-8.322657 v 9.757982 h 0.97914 v -0.489568 h 7.26563 v 0.489568 h 1.02365 v -9.757982 z"
             style="font-style:normal;font-variant:normal;font-weight:500;font-stretch:normal;font-size:11.1265px;line-height:11.7979px;font-family:'Noto Sans T Chinese';-inkscape-font-specification:'Noto Sans T Chinese Medium';letter-spacing:2.52957px;fill:#666666;fill-opacity:1;stroke-width:3.54509"
             id="path15290"
             inkscape:connector-curvature="0" />
          <path
             d="m 309.72137,30.718041 c -0.1224,0.734352 -0.27817,1.524337 -0.41169,2.036158 l 0.82337,0.222531 c 0.24478,-0.767732 0.51182,-2.002778 0.7121,-3.048674 l -0.68985,-0.178024 -0.1669,0.03338 h -2.5146 c 0.14465,-0.600833 0.24479,-1.235046 0.3338,-1.880386 l -1.01252,-0.133519 c -0.18915,1.724615 -0.60083,3.360217 -1.32405,4.394986 0.23365,0.144645 0.66759,0.433936 0.84561,0.600834 0.36718,-0.556328 0.6676,-1.268427 0.90125,-2.047285 z m -7.83309,2.114044 h 0.99026 v 0.845618 h -0.99026 z m 0,-1.54659 h 0.99026 v 0.834491 h -0.99026 z m 2.69262,0.834491 h -0.95688 v -0.834491 h 0.95688 z m 0,1.557717 h -0.95688 v -0.845618 h 0.95688 z m 1.16829,2.470093 v -0.923503 h -2.05841 v -0.789985 h 1.66898 V 30.52889 h -1.66898 v -0.723226 h 1.91376 v -0.912376 h -1.91376 V 27.75838 h -0.86787 v 1.134908 h -1.95827 v 0.912376 h 1.95827 v 0.723226 h -1.68011 v 3.905418 h 1.68011 v 0.789985 h -2.05841 v 0.923503 h 2.05841 v 1.83588 h 0.86787 v -1.83588 z m 2.80389,-3.315711 c 0.0111,-0.28929 0.0222,-0.567454 0.0222,-0.823364 v -0.522948 h -1.02364 v 0.511821 c 0,1.424198 -0.18915,3.605001 -2.59249,5.207224 0.24479,0.178025 0.62309,0.511821 0.77886,0.756605 1.33519,-0.93463 2.04729,-2.036158 2.42559,-3.126559 0.46731,1.401944 1.16829,2.514599 2.22531,3.137686 0.14464,-0.278164 0.46731,-0.667593 0.70097,-0.878997 -1.37969,-0.700973 -2.16967,-2.369955 -2.53685,-4.261468 z"
             style="font-style:normal;font-variant:normal;font-weight:500;font-stretch:normal;font-size:11.1265px;line-height:11.7979px;font-family:'Noto Sans T Chinese';-inkscape-font-specification:'Noto Sans T Chinese Medium';letter-spacing:2.52957px;fill:#666666;fill-opacity:1;stroke-width:3.54509"
             id="path15292"
             inkscape:connector-curvature="0" />
          <path
             d="m 323.42199,29.972563 h -0.75661 V 29.30497 h 0.75661 z m 0,1.346312 h -0.75661 v -0.67872 h 0.75661 z m -3.50487,-0.67872 h 0.73436 v 0.67872 h -0.73436 z m 0,-1.335185 h 0.73436 v 0.667593 h -0.73436 z m 2.09179,1.335185 v 0.67872 h -0.70097 v -0.67872 z m -0.70097,-0.667592 V 29.30497 h 0.70097 v 0.667593 z m 2.92628,-1.368566 h -1.43532 v -0.823364 h -0.82337 v 0.823364 h -0.66759 v -0.823364 h -0.82336 v 0.823364 h -1.35744 v 3.426977 h 5.10708 z m 0.26704,3.916545 h -5.5744 v 0.767732 h 5.5744 z m -8.61195,1.579969 c 0.37831,0.255911 0.84562,0.656467 1.07928,0.901251 l 0.46731,-0.534074 c -0.23365,-0.233658 -0.7121,-0.589707 -1.1349,-0.845618 l -0.41169,0.422809 v -0.767732 h 1.55772 v 1.780247 c -0.60083,0.300417 -1.16829,0.589707 -1.61335,0.778859 0.0445,-0.422809 0.0556,-0.823365 0.0556,-1.179414 z m -0.12239,-5.196097 h 1.72462 v 0.589707 h -1.15717 v 1.746868 h -0.56745 z m 1.13491,2.336575 v -1.123781 h 0.58971 v 1.123781 z m 1.11265,1.324059 h -2.75938 v -0.600834 h 2.75938 z m 0.78999,0.32267 v -1.646729 h -0.45619 v -3.104307 h -3.3936 v 3.104307 h -0.45619 v 1.646729 h 0.54521 v 1.757994 c 0,0.878997 -0.0556,2.013905 -0.62309,2.859523 0.20028,0.08901 0.57858,0.356049 0.72322,0.522947 0.40056,-0.589706 0.57858,-1.357438 0.67872,-2.102917 l 0.31155,0.623087 c 0.41168,-0.244784 0.85674,-0.522948 1.31293,-0.801112 v 1.2573 c 0,0.111266 -0.0334,0.144645 -0.14465,0.144645 -0.12239,0.01113 -0.46731,0.01113 -0.86787,0 0.11127,0.211405 0.23366,0.545201 0.27817,0.778859 0.60083,0 0.99026,-0.01113 1.2573,-0.144646 0.26703,-0.144645 0.34492,-0.356049 0.34492,-0.767731 v -4.127949 z m 3.80528,2.959661 c -0.10014,0.32267 -0.27817,0.789985 -0.44506,1.157161 h -0.97914 c -0.11127,-0.333796 -0.30042,-0.789985 -0.47844,-1.157161 z m -2.29207,-1.435324 h 2.71488 v 0.778858 h -2.71488 z m 2.70375,2.592485 c 0.1669,-0.28929 0.3338,-0.61196 0.52295,-0.923503 l -0.84562,-0.233658 h 1.30181 v -2.102917 h -4.58414 v 2.102917 h 1.2573 l -0.74548,0.222531 c 0.12239,0.28929 0.24478,0.634213 0.34492,0.93463 h -1.4687 v 0.778858 h 5.79693 V 37.00454 Z"
             style="font-style:normal;font-variant:normal;font-weight:500;font-stretch:normal;font-size:11.1265px;line-height:11.7979px;font-family:'Noto Sans T Chinese';-inkscape-font-specification:'Noto Sans T Chinese Medium';letter-spacing:2.52957px;fill:#666666;fill-opacity:1;stroke-width:3.54509"
             id="path15294"
             inkscape:connector-curvature="0" />
          <path
             d="m 330.37992,36.437086 v -1.435324 h 5.63004 v 1.435324 z m 5.63004,-3.816405 v 1.424198 h -5.63004 v -1.424198 z m 0,-2.381081 v 1.424198 h -5.63004 V 30.2396 Z m -2.80389,-0.990263 c 0.18915,-0.400556 0.36717,-0.878997 0.5452,-1.346312 l -1.23505,-0.144645 c -0.0779,0.433935 -0.2114,1.012516 -0.36717,1.490957 h -2.80389 v 8.745466 h 1.03476 v -0.600834 h 5.63004 v 0.556328 h 1.0904 v -8.70096 z"
             style="font-style:normal;font-variant:normal;font-weight:500;font-stretch:normal;font-size:11.1265px;line-height:11.7979px;font-family:'Noto Sans T Chinese';-inkscape-font-specification:'Noto Sans T Chinese Medium';letter-spacing:2.52957px;fill:#666666;fill-opacity:1;stroke-width:3.54509"
             id="path15296"
             inkscape:connector-curvature="0" />
          <path
             d="m 347.28499,36.325821 v -2.214183 h 2.77051 v 2.214183 z m -3.76077,-2.214183 h 2.70375 v 2.214183 h -2.70375 z m 2.70375,-3.171066 v 2.15855 h -2.70375 v -2.15855 z m 3.82753,0 v 2.15855 h -2.77051 v -2.15855 z m -2.77051,-1.045895 v -2.114044 h -1.05702 v 2.114044 h -3.73852 v 8.100126 h 1.03477 v -0.656466 h 6.53128 v 0.61196 h 1.07927 v -8.05562 z"
             style="font-style:normal;font-variant:normal;font-weight:500;font-stretch:normal;font-size:11.1265px;line-height:11.7979px;font-family:'Noto Sans T Chinese';-inkscape-font-specification:'Noto Sans T Chinese Medium';letter-spacing:2.52957px;fill:#666666;fill-opacity:1;stroke-width:3.54509"
             id="path15298"
             inkscape:connector-curvature="0" />
          <path
             d="m 358.90494,31.574785 v -0.945756 h -1.2573 v -2.848396 h -0.99026 v 2.848396 h -1.30181 v 0.945756 h 1.30181 v 6.364385 h 0.99026 v -6.364385 z m 5.11821,-1.8025 c -0.089,0.956883 -0.2114,1.390818 -0.34492,1.524337 -0.10014,0.08901 -0.20028,0.100139 -0.35605,0.100139 -0.18915,0 -0.62308,0 -1.07927,-0.04451 0.13352,0.233658 0.24478,0.567454 0.25591,0.823365 0.47844,0.02225 0.94575,0.02225 1.21279,0 0.31154,-0.02225 0.5452,-0.08901 0.74548,-0.300417 0.26704,-0.267037 0.42281,-0.945756 0.55633,-2.559106 0.0111,-0.133518 0.0222,-0.378302 0.0222,-0.378302 h -2.6815 c 0.0668,-0.35605 0.10014,-0.745479 0.13352,-1.157161 h -0.97913 c -0.0223,0.411682 -0.0668,0.801111 -0.1224,1.157161 h -2.06953 v 0.834491 h 1.83588 c -0.34493,0.86787 -1.00139,1.502084 -2.29207,1.958272 0.20027,0.155772 0.44506,0.511821 0.5452,0.723226 1.56884,-0.600834 2.3477,-1.468705 2.74825,-2.681498 z m -3.82753,3.760773 c 0.0223,-0.344923 0.0334,-0.712099 0.0445,-1.079275 h -0.879 c -0.0111,0.378302 -0.0222,0.734352 -0.0334,1.079275 h -1.04589 v 0.812237 h 0.97913 c -0.14464,1.301806 -0.47844,2.336575 -1.3018,3.048674 0.18915,0.155772 0.45619,0.456189 0.57858,0.667593 0.99026,-0.890124 1.41307,-2.147423 1.59109,-3.716267 h 0.70098 c -0.0556,1.880387 -0.1224,2.592486 -0.25591,2.770511 -0.0668,0.100139 -0.14465,0.122392 -0.26704,0.122392 -0.13352,0 -0.36718,-0.01113 -0.66759,-0.03338 0.12239,0.200278 0.2114,0.545201 0.22253,0.767732 0.31154,0.01113 0.64534,0.01113 0.84561,-0.02225 0.25591,-0.02225 0.44507,-0.100139 0.58971,-0.311544 0.23366,-0.300416 0.32267,-1.212793 0.40056,-3.727393 0,-0.122392 0.0111,-0.378302 0.0111,-0.378302 z m 3.64951,0 c 0.0223,-0.35605 0.0334,-0.723226 0.0445,-1.101529 h -0.91238 c -0.0111,0.38943 -0.0222,0.756606 -0.0334,1.101529 h -1.00139 v 0.812237 h 0.93463 c -0.14464,1.29068 -0.50069,2.292069 -1.36856,2.981915 0.2114,0.155772 0.46731,0.478442 0.5897,0.678719 1.03477,-0.86787 1.47983,-2.09179 1.66898,-3.660634 h 0.76774 c -0.0445,1.858134 -0.1224,2.54798 -0.25591,2.726004 -0.0779,0.100139 -0.15578,0.122392 -0.27817,0.122392 -0.13352,0 -0.41168,0 -0.72322,-0.03338 0.12239,0.211404 0.20027,0.556327 0.22253,0.789985 0.34492,0.01113 0.68984,0.01113 0.91237,-0.02225 0.25591,-0.02225 0.45619,-0.100139 0.62309,-0.32267 0.22253,-0.300417 0.30042,-1.201667 0.3783,-3.694014 0,-0.122392 0.0111,-0.378302 0.0111,-0.378302 z"
             style="font-style:normal;font-variant:normal;font-weight:500;font-stretch:normal;font-size:11.1265px;line-height:11.7979px;font-family:'Noto Sans T Chinese';-inkscape-font-specification:'Noto Sans T Chinese Medium';letter-spacing:2.52957px;fill:#666666;fill-opacity:1;stroke-width:3.54509"
             id="path15300"
             inkscape:connector-curvature="0" />
          <path
             d="m 376.2662,34.979509 v 0.61196 h -4.26146 v -0.61196 z m -4.26146,1.947145 v -0.623086 h 4.26146 v 0.623086 z m -1.02365,1.045896 h 1.02365 v -0.344923 h 4.26146 v 0.300417 h 1.05703 V 34.26741 h -6.34214 z m -0.40055,-7.043104 c 0.55633,-0.211405 1.10153,-0.445062 1.61335,-0.734352 v 0.267037 h 3.84978 v -0.32267 c 0.56746,0.32267 1.17942,0.57858 1.78025,0.789985 z m 6.37551,2.214182 h -1.17941 c 0.20027,-0.322669 0.44506,-0.789984 0.68984,-1.268426 l -0.86787,-0.244784 c -0.12239,0.378303 -0.35605,0.945757 -0.55633,1.301806 l 0.68985,0.211404 h -1.24617 v -1.535463 h 2.47009 z m -5.18497,-1.246173 c 0.23366,0.389429 0.44506,0.90125 0.52295,1.246173 h -1.06815 v -1.535463 h 2.41446 v 1.535463 h -1.31293 l 0.73435,-0.244784 c -0.0779,-0.333796 -0.32267,-0.845617 -0.56746,-1.22392 z m 1.17941,-2.147423 c 0.43394,-0.278164 0.85675,-0.600834 1.2128,-0.93463 0.35605,0.333796 0.76773,0.656466 1.22392,0.93463 z m 1.01252,-2.036158 c -1.01252,1.301806 -2.98192,2.269815 -4.99582,2.781636 0.17802,0.178025 0.46731,0.600834 0.55633,0.789985 0.27816,-0.07789 0.5452,-0.166898 0.82336,-0.267037 v 2.80389 h 7.52155 v -2.881776 c 0.27816,0.100139 0.56745,0.189151 0.83449,0.267037 0.15577,-0.244784 0.44506,-0.61196 0.65646,-0.789985 -1.73574,-0.367176 -3.61612,-1.212793 -4.65089,-2.169676 0.0668,-0.06676 0.11126,-0.144645 0.1669,-0.211405 z"
             style="font-style:normal;font-variant:normal;font-weight:500;font-stretch:normal;font-size:11.1265px;line-height:11.7979px;font-family:'Noto Sans T Chinese';-inkscape-font-specification:'Noto Sans T Chinese Medium';letter-spacing:2.52957px;fill:#666666;fill-opacity:1;stroke-width:3.54509"
             id="path15302"
             inkscape:connector-curvature="0" />
        </g>
        <g
           id="g15079"
           transform="translate(-275.51224,0.89525748)"
           style="stroke-width:0.655006">
          <g
             aria-label="OFTWARE"
             transform="scale(1.0236652,0.97688189)"
             style="font-style:normal;font-weight:normal;font-size:7.14573px;line-height:4.64473px;font-family:sans-serif;letter-spacing:0px;word-spacing:0px;display:inline;fill:#666666;fill-opacity:1;stroke:none;stroke-width:0.403016"
             id="text15057">
            <path
               d="m 229.52664,19.746098 c 1.35055,0 2.29378,-1.050422 2.29378,-2.74396 0,-1.693538 -0.94323,-2.708232 -2.29378,-2.708232 -1.35054,0 -2.28663,1.014694 -2.28663,2.708232 0,1.693538 0.93609,2.74396 2.28663,2.74396 z m 0,-0.721718 c -0.87178,0 -1.43629,-0.786031 -1.43629,-2.022242 0,-1.236212 0.56451,-1.986513 1.43629,-1.986513 0.87178,0 1.44344,0.750301 1.44344,1.986513 0,1.236211 -0.57166,2.022242 -1.44344,2.022242 z"
               style="font-style:normal;font-variant:normal;font-weight:500;font-stretch:normal;font-family:'Noto Sans T Chinese';-inkscape-font-specification:'Noto Sans T Chinese Medium';letter-spacing:0px;fill:#666666;fill-opacity:1;stroke-width:0.403016"
               id="path15224"
               inkscape:connector-curvature="0" />
            <path
               d="m 232.91305,19.653204 h 0.8289 v -2.265197 h 1.94364 v -0.693136 h -1.94364 v -1.607789 h 2.28664 v -0.693136 h -3.11554 z"
               style="font-style:normal;font-variant:normal;font-weight:500;font-stretch:normal;font-family:'Noto Sans T Chinese';-inkscape-font-specification:'Noto Sans T Chinese Medium';letter-spacing:0px;fill:#666666;fill-opacity:1;stroke-width:0.403016"
               id="path15226"
               inkscape:connector-curvature="0" />
            <path
               d="m 238.0323,19.653204 h 0.8289 v -4.566122 h 1.55062 v -0.693136 h -3.923 v 0.693136 h 1.54348 z"
               style="font-style:normal;font-variant:normal;font-weight:500;font-stretch:normal;font-family:'Noto Sans T Chinese';-inkscape-font-specification:'Noto Sans T Chinese Medium';letter-spacing:0px;fill:#666666;fill-opacity:1;stroke-width:0.403016"
               id="path15228"
               inkscape:connector-curvature="0" />
            <path
               d="m 241.85794,19.653204 h 1.0004 l 0.69314,-2.922604 c 0.0857,-0.414452 0.1715,-0.807468 0.24296,-1.207629 h 0.0357 c 0.0715,0.400161 0.15006,0.793177 0.24296,1.207629 l 0.70743,2.922604 h 1.02184 l 1.03613,-5.259258 h -0.79318 l -0.5002,2.736815 c -0.0857,0.550221 -0.17864,1.114734 -0.26439,1.686392 h -0.0357 c -0.12148,-0.571658 -0.23581,-1.136171 -0.35729,-1.686392 l -0.68599,-2.736815 h -0.72886 l -0.67885,2.736815 c -0.12147,0.557367 -0.24295,1.12188 -0.35728,1.686392 h -0.0286 l -0.27868,-1.686392 -0.49306,-2.736815 h -0.85748 z"
               style="font-style:normal;font-variant:normal;font-weight:500;font-stretch:normal;font-family:'Noto Sans T Chinese';-inkscape-font-specification:'Noto Sans T Chinese Medium';letter-spacing:0px;fill:#666666;fill-opacity:1;stroke-width:0.403016"
               id="path15230"
               inkscape:connector-curvature="0" />
            <path
               d="m 248.50012,17.502339 0.21437,-0.707427 c 0.1715,-0.571659 0.33585,-1.150463 0.48591,-1.750705 h 0.0286 c 0.16435,0.593096 0.32155,1.179046 0.5002,1.750705 l 0.20722,0.707427 z m 2.07941,2.150865 h 0.87892 l -1.74355,-5.259258 h -0.95753 l -1.74356,5.259258 h 0.8432 l 0.45018,-1.500604 h 1.8293 z"
               style="font-style:normal;font-variant:normal;font-weight:500;font-stretch:normal;font-family:'Noto Sans T Chinese';-inkscape-font-specification:'Noto Sans T Chinese Medium';letter-spacing:0px;fill:#666666;fill-opacity:1;stroke-width:0.403016"
               id="path15232"
               inkscape:connector-curvature="0" />
            <path
               d="m 252.97402,15.058499 h 0.79318 c 0.76459,0 1.17904,0.221518 1.17904,0.857488 0,0.63597 -0.41445,0.950382 -1.17904,0.950382 h -0.79318 z m 2.97977,4.594705 -1.28623,-2.229468 c 0.66455,-0.207226 1.10044,-0.693136 1.10044,-1.507749 0,-1.136172 -0.81461,-1.522041 -1.90076,-1.522041 h -1.72213 v 5.259258 h 0.82891 v -2.122282 h 0.85034 l 1.19334,2.122282 z"
               style="font-style:normal;font-variant:normal;font-weight:500;font-stretch:normal;font-family:'Noto Sans T Chinese';-inkscape-font-specification:'Noto Sans T Chinese Medium';letter-spacing:0px;fill:#666666;fill-opacity:1;stroke-width:0.403016"
               id="path15234"
               inkscape:connector-curvature="0" />
            <path
               d="m 256.82054,19.653204 h 3.187 v -0.700282 h -2.35809 v -1.700684 h 1.92935 v -0.700281 h -1.92935 v -1.464875 h 2.27949 v -0.693136 h -3.1084 z"
               style="font-style:normal;font-variant:normal;font-weight:500;font-stretch:normal;font-family:'Noto Sans T Chinese';-inkscape-font-specification:'Noto Sans T Chinese Medium';letter-spacing:0px;fill:#666666;fill-opacity:1;stroke-width:0.403016"
               id="path15236"
               inkscape:connector-curvature="0" />
          </g>
          <g
             aria-label="IBERTY"
             transform="scale(1.0236652,0.97688189)"
             style="font-style:normal;font-weight:normal;font-size:7.14573px;line-height:4.64473px;font-family:sans-serif;letter-spacing:0px;word-spacing:0px;display:inline;fill:#666666;fill-opacity:1;stroke:none;stroke-width:0.403016"
             id="text15061">
            <path
               d="m 269.46959,19.746069 h 0.82891 v -5.259258 h -0.82891 z"
               style="font-style:normal;font-variant:normal;font-weight:500;font-stretch:normal;font-family:'Noto Sans T Chinese';-inkscape-font-specification:'Noto Sans T Chinese Medium';letter-spacing:0px;fill:#666666;fill-opacity:1;stroke-width:0.403016"
               id="path15239"
               inkscape:connector-curvature="0" />
            <path
               d="m 271.67472,19.746069 h 1.75785 c 1.16476,0 2.0151,-0.500201 2.0151,-1.543478 0,-0.714573 -0.43589,-1.12188 -1.03613,-1.250503 v -0.03573 c 0.47162,-0.157206 0.7503,-0.63597 0.7503,-1.136171 0,-0.950382 -0.77889,-1.293377 -1.85789,-1.293377 h -1.62923 z m 0.82891,-3.065519 v -1.550623 h 0.72886 c 0.74316,0 1.11474,0.207226 1.11474,0.757447 0,0.493056 -0.33585,0.793176 -1.13618,0.793176 z m 0,2.415257 v -1.786432 h 0.83605 c 0.83605,0 1.29338,0.257246 1.29338,0.850342 0,0.643115 -0.47162,0.93609 -1.29338,0.93609 z"
               style="font-style:normal;font-variant:normal;font-weight:500;font-stretch:normal;font-family:'Noto Sans T Chinese';-inkscape-font-specification:'Noto Sans T Chinese Medium';letter-spacing:0px;fill:#666666;fill-opacity:1;stroke-width:0.403016"
               id="path15241"
               inkscape:connector-curvature="0" />
            <path
               d="m 276.44785,19.746069 h 3.18699 v -0.700282 h -2.35809 v -1.700684 h 1.92935 v -0.700281 h -1.92935 v -1.464875 h 2.27949 v -0.693136 h -3.10839 z"
               style="font-style:normal;font-variant:normal;font-weight:500;font-stretch:normal;font-family:'Noto Sans T Chinese';-inkscape-font-specification:'Noto Sans T Chinese Medium';letter-spacing:0px;fill:#666666;fill-opacity:1;stroke-width:0.403016"
               id="path15243"
               inkscape:connector-curvature="0" />
            <path
               d="m 281.5614,15.151364 h 0.79318 c 0.76459,0 1.17904,0.221518 1.17904,0.857488 0,0.63597 -0.41445,0.950382 -1.17904,0.950382 h -0.79318 z m 2.97977,4.594705 -1.28623,-2.229468 c 0.66455,-0.207226 1.10044,-0.693136 1.10044,-1.507749 0,-1.136172 -0.81461,-1.522041 -1.90076,-1.522041 h -1.72213 v 5.259258 h 0.82891 v -2.122282 h 0.85034 l 1.19334,2.122282 z"
               style="font-style:normal;font-variant:normal;font-weight:500;font-stretch:normal;font-family:'Noto Sans T Chinese';-inkscape-font-specification:'Noto Sans T Chinese Medium';letter-spacing:0px;fill:#666666;fill-opacity:1;stroke-width:0.403016"
               id="path15245"
               inkscape:connector-curvature="0" />
            <path
               d="m 286.35418,19.746069 h 0.8289 v -4.566122 h 1.55062 v -0.693136 h -3.923 v 0.693136 h 1.54348 z"
               style="font-style:normal;font-variant:normal;font-weight:500;font-stretch:normal;font-family:'Noto Sans T Chinese';-inkscape-font-specification:'Noto Sans T Chinese Medium';letter-spacing:0px;fill:#666666;fill-opacity:1;stroke-width:0.403016"
               id="path15247"
               inkscape:connector-curvature="0" />
            <path
               d="m 290.37577,19.746069 h 0.8289 V 17.75241 l 1.58636,-3.265599 h -0.86464 l -0.61453,1.393417 c -0.15721,0.393016 -0.3287,0.757448 -0.5002,1.157609 h -0.0286 c -0.17865,-0.400161 -0.32871,-0.764593 -0.49306,-1.157609 l -0.60739,-1.393417 h -0.88607 l 1.57921,3.265599 z"
               style="font-style:normal;font-variant:normal;font-weight:500;font-stretch:normal;font-family:'Noto Sans T Chinese';-inkscape-font-specification:'Noto Sans T Chinese Medium';letter-spacing:0px;fill:#666666;fill-opacity:1;stroke-width:0.403016"
               id="path15249"
               inkscape:connector-curvature="0" />
          </g>
          <g
             aria-label="SSOCIATION "
             transform="scale(1.0236652,0.97688189)"
             style="font-style:normal;font-weight:normal;font-size:7.14573px;line-height:4.64473px;font-family:sans-serif;letter-spacing:0px;word-spacing:0px;display:inline;fill:#666666;fill-opacity:1;stroke:none;stroke-width:0.403016"
             id="text15065">
            <path
               d="m 304.90477,19.746098 c 1.15046,0 1.85074,-0.68599 1.85074,-1.529186 0,-0.771739 -0.45018,-1.157608 -1.07186,-1.422 l -0.72172,-0.307267 c -0.42874,-0.171497 -0.85034,-0.342995 -0.85034,-0.793176 0,-0.421598 0.35014,-0.678844 0.88607,-0.678844 0.46448,0 0.82891,0.178643 1.15761,0.471618 l 0.43589,-0.528784 c -0.40016,-0.407307 -0.97896,-0.664553 -1.5935,-0.664553 -1.0004,0 -1.72926,0.621678 -1.72926,1.450583 0,0.764593 0.56451,1.164754 1.07186,1.379126 l 0.72886,0.314412 c 0.48591,0.214372 0.8432,0.364433 0.8432,0.843197 0,0.443035 -0.35729,0.743156 -0.99326,0.743156 -0.50735,0 -1.02184,-0.242955 -1.40056,-0.621679 l -0.48591,0.571659 c 0.47876,0.485909 1.15046,0.771738 1.87218,0.771738 z"
               style="font-style:normal;font-variant:normal;font-weight:500;font-stretch:normal;font-family:'Noto Sans T Chinese';-inkscape-font-specification:'Noto Sans T Chinese Medium';letter-spacing:0px;fill:#666666;fill-opacity:1;stroke-width:0.403016"
               id="path15263"
               inkscape:connector-curvature="0" />
            <path
               d="m 309.11963,19.746098 c 1.15047,0 1.85075,-0.68599 1.85075,-1.529186 0,-0.771739 -0.45018,-1.157608 -1.07186,-1.422 l -0.72172,-0.307267 c -0.42874,-0.171497 -0.85034,-0.342995 -0.85034,-0.793176 0,-0.421598 0.35014,-0.678844 0.88607,-0.678844 0.46447,0 0.8289,0.178643 1.15761,0.471618 l 0.43589,-0.528784 c -0.40017,-0.407307 -0.97897,-0.664553 -1.5935,-0.664553 -1.0004,0 -1.72927,0.621678 -1.72927,1.450583 0,0.764593 0.56451,1.164754 1.07186,1.379126 l 0.72887,0.314412 c 0.4859,0.214372 0.84319,0.364433 0.84319,0.843197 0,0.443035 -0.35729,0.743156 -0.99326,0.743156 -0.50734,0 -1.02183,-0.242955 -1.40056,-0.621679 l -0.48591,0.571659 c 0.47877,0.485909 1.15046,0.771738 1.87218,0.771738 z"
               style="font-style:normal;font-variant:normal;font-weight:500;font-stretch:normal;font-family:'Noto Sans T Chinese';-inkscape-font-specification:'Noto Sans T Chinese Medium';letter-spacing:0px;fill:#666666;fill-opacity:1;stroke-width:0.403016"
               id="path15265"
               inkscape:connector-curvature="0" />
            <path
               d="m 313.96031,19.746098 c 1.35054,0 2.29378,-1.050422 2.29378,-2.74396 0,-1.693538 -0.94324,-2.708232 -2.29378,-2.708232 -1.35055,0 -2.28664,1.014694 -2.28664,2.708232 0,1.693538 0.93609,2.74396 2.28664,2.74396 z m 0,-0.721718 c -0.87178,0 -1.43629,-0.786031 -1.43629,-2.022242 0,-1.236212 0.56451,-1.986513 1.43629,-1.986513 0.87178,0 1.44344,0.750301 1.44344,1.986513 0,1.236211 -0.57166,2.022242 -1.44344,2.022242 z"
               style="font-style:normal;font-variant:normal;font-weight:500;font-stretch:normal;font-family:'Noto Sans T Chinese';-inkscape-font-specification:'Noto Sans T Chinese Medium';letter-spacing:0px;fill:#666666;fill-opacity:1;stroke-width:0.403016"
               id="path15267"
               inkscape:connector-curvature="0" />
            <path
               d="m 319.39754,19.746098 c 0.67884,0 1.21477,-0.271537 1.63637,-0.757447 l -0.44303,-0.521638 c -0.31442,0.342995 -0.68599,0.557367 -1.16476,0.557367 -0.92894,0 -1.51489,-0.764594 -1.51489,-2.015096 0,-1.236212 0.62882,-1.993659 1.53633,-1.993659 0.42874,0 0.75745,0.192934 1.02898,0.471618 l 0.45018,-0.528784 c -0.32155,-0.350141 -0.83605,-0.664553 -1.49345,-0.664553 -1.32911,0 -2.37239,1.028985 -2.37239,2.74396 0,1.722122 1.0147,2.708232 2.33666,2.708232 z"
               style="font-style:normal;font-variant:normal;font-weight:500;font-stretch:normal;font-family:'Noto Sans T Chinese';-inkscape-font-specification:'Noto Sans T Chinese Medium';letter-spacing:0px;fill:#666666;fill-opacity:1;stroke-width:0.403016"
               id="path15269"
               inkscape:connector-curvature="0" />
            <path
               d="m 321.96632,19.653204 h 0.8289 v -5.259258 h -0.8289 z"
               style="font-style:normal;font-variant:normal;font-weight:500;font-stretch:normal;font-family:'Noto Sans T Chinese';-inkscape-font-specification:'Noto Sans T Chinese Medium';letter-spacing:0px;fill:#666666;fill-opacity:1;stroke-width:0.403016"
               id="path15271"
               inkscape:connector-curvature="0" />
            <path
               d="m 324.96462,17.502339 0.21437,-0.707427 c 0.1715,-0.571659 0.33585,-1.150463 0.48591,-1.750705 h 0.0286 c 0.16435,0.593096 0.32155,1.179046 0.5002,1.750705 l 0.20722,0.707427 z m 2.07941,2.150865 h 0.87892 l -1.74355,-5.259258 h -0.95753 l -1.74356,5.259258 h 0.8432 l 0.45018,-1.500604 h 1.8293 z"
               style="font-style:normal;font-variant:normal;font-weight:500;font-stretch:normal;font-family:'Noto Sans T Chinese';-inkscape-font-specification:'Noto Sans T Chinese Medium';letter-spacing:0px;fill:#666666;fill-opacity:1;stroke-width:0.403016"
               id="path15273"
               inkscape:connector-curvature="0" />
            <path
               d="m 329.193,19.653204 h 0.8289 v -4.566122 h 1.55063 v -0.693136 h -3.92301 v 0.693136 h 1.54348 z"
               style="font-style:normal;font-variant:normal;font-weight:500;font-stretch:normal;font-family:'Noto Sans T Chinese';-inkscape-font-specification:'Noto Sans T Chinese Medium';letter-spacing:0px;fill:#666666;fill-opacity:1;stroke-width:0.403016"
               id="path15275"
               inkscape:connector-curvature="0" />
            <path
               d="m 332.47557,19.653204 h 0.8289 v -5.259258 h -0.8289 z"
               style="font-style:normal;font-variant:normal;font-weight:500;font-stretch:normal;font-family:'Noto Sans T Chinese';-inkscape-font-specification:'Noto Sans T Chinese Medium';letter-spacing:0px;fill:#666666;fill-opacity:1;stroke-width:0.403016"
               id="path15277"
               inkscape:connector-curvature="0" />
            <path
               d="m 336.6815,19.746098 c 1.35054,0 2.29378,-1.050422 2.29378,-2.74396 0,-1.693538 -0.94324,-2.708232 -2.29378,-2.708232 -1.35054,0 -2.28663,1.014694 -2.28663,2.708232 0,1.693538 0.93609,2.74396 2.28663,2.74396 z m 0,-0.721718 c -0.87178,0 -1.43629,-0.786031 -1.43629,-2.022242 0,-1.236212 0.56451,-1.986513 1.43629,-1.986513 0.87178,0 1.44344,0.750301 1.44344,1.986513 0,1.236211 -0.57166,2.022242 -1.44344,2.022242 z"
               style="font-style:normal;font-variant:normal;font-weight:500;font-stretch:normal;font-family:'Noto Sans T Chinese';-inkscape-font-specification:'Noto Sans T Chinese Medium';letter-spacing:0px;fill:#666666;fill-opacity:1;stroke-width:0.403016"
               id="path15279"
               inkscape:connector-curvature="0" />
            <path
               d="m 340.06791,19.653204 h 0.78603 v -2.479569 c 0,-0.571658 -0.0643,-1.179045 -0.10719,-1.722121 h 0.0357 l 0.55022,1.100443 1.74356,3.101247 h 0.85034 v -5.259258 h -0.78603 v 2.450986 c 0,0.571658 0.0643,1.207628 0.10719,1.750704 h -0.0357 l -0.55022,-1.114734 -1.74356,-3.086956 h -0.85034 z"
               style="font-style:normal;font-variant:normal;font-weight:500;font-stretch:normal;font-family:'Noto Sans T Chinese';-inkscape-font-specification:'Noto Sans T Chinese Medium';letter-spacing:0px;fill:#666666;fill-opacity:1;stroke-width:0.403016"
               id="path15281"
               inkscape:connector-curvature="0" />
          </g>
          <g
             aria-label="AIWAN "
             transform="scale(1.0236652,0.97688189)"
             style="font-style:normal;font-weight:normal;font-size:7.14573px;line-height:4.64473px;font-family:sans-serif;letter-spacing:0px;word-spacing:0px;display:inline;fill:#666666;fill-opacity:1;stroke:none;stroke-width:0.403016"
             id="text15069">
            <path
               d="m 350.56178,17.595204 0.21437,-0.707427 c 0.1715,-0.571659 0.33585,-1.150463 0.48591,-1.750705 h 0.0286 c 0.16435,0.593096 0.32155,1.179046 0.5002,1.750705 l 0.20722,0.707427 z m 2.07941,2.150865 h 0.87892 l -1.74355,-5.259258 h -0.95753 l -1.74356,5.259258 h 0.8432 l 0.45018,-1.500604 h 1.8293 z"
               style="font-style:normal;font-variant:normal;font-weight:500;font-stretch:normal;font-family:'Noto Sans T Chinese';-inkscape-font-specification:'Noto Sans T Chinese Medium';letter-spacing:0px;fill:#666666;fill-opacity:1;stroke-width:0.403016"
               id="path15252"
               inkscape:connector-curvature="0" />
            <path
               d="m 354.20677,19.746069 h 0.82891 v -5.259258 h -0.82891 z"
               style="font-style:normal;font-variant:normal;font-weight:500;font-stretch:normal;font-family:'Noto Sans T Chinese';-inkscape-font-specification:'Noto Sans T Chinese Medium';letter-spacing:0px;fill:#666666;fill-opacity:1;stroke-width:0.403016"
               id="path15254"
               inkscape:connector-curvature="0" />
            <path
               d="m 356.95498,19.746069 h 1.0004 l 0.69314,-2.922604 c 0.0857,-0.414452 0.17149,-0.807468 0.24295,-1.207629 h 0.0357 c 0.0715,0.400161 0.15006,0.793177 0.24296,1.207629 l 0.70742,2.922604 h 1.02184 l 1.03613,-5.259258 h -0.79317 l -0.5002,2.736815 c -0.0858,0.550221 -0.17865,1.114734 -0.2644,1.686392 h -0.0357 c -0.12148,-0.571658 -0.23581,-1.136171 -0.35729,-1.686392 l -0.68599,-2.736815 h -0.72887 l -0.67884,2.736815 c -0.12148,0.557367 -0.24296,1.12188 -0.35729,1.686392 h -0.0286 l -0.27868,-1.686392 -0.49306,-2.736815 h -0.85749 z"
               style="font-style:normal;font-variant:normal;font-weight:500;font-stretch:normal;font-family:'Noto Sans T Chinese';-inkscape-font-specification:'Noto Sans T Chinese Medium';letter-spacing:0px;fill:#666666;fill-opacity:1;stroke-width:0.403016"
               id="path15256"
               inkscape:connector-curvature="0" />
            <path
               d="m 363.59716,17.595204 0.21437,-0.707427 c 0.1715,-0.571659 0.33585,-1.150463 0.48591,-1.750705 h 0.0286 c 0.16435,0.593096 0.32156,1.179046 0.5002,1.750705 l 0.20723,0.707427 z m 2.07941,2.150865 h 0.87892 l -1.74356,-5.259258 h -0.95753 l -1.74355,5.259258 h 0.84319 l 0.45018,-1.500604 h 1.82931 z"
               style="font-style:normal;font-variant:normal;font-weight:500;font-stretch:normal;font-family:'Noto Sans T Chinese';-inkscape-font-specification:'Noto Sans T Chinese Medium';letter-spacing:0px;fill:#666666;fill-opacity:1;stroke-width:0.403016"
               id="path15258"
               inkscape:connector-curvature="0" />
            <path
               d="m 367.24215,19.746069 h 0.78603 V 17.2665 c 0,-0.571658 -0.0643,-1.179045 -0.10718,-1.722121 h 0.0357 l 0.55023,1.100443 1.74355,3.101247 h 0.85035 v -5.259258 h -0.78603 v 2.450986 c 0,0.571658 0.0643,1.207628 0.10718,1.750704 h -0.0357 l -0.55022,-1.114734 -1.74356,-3.086956 h -0.85034 z"
               style="font-style:normal;font-variant:normal;font-weight:500;font-stretch:normal;font-family:'Noto Sans T Chinese';-inkscape-font-specification:'Noto Sans T Chinese Medium';letter-spacing:0px;fill:#666666;fill-opacity:1;stroke-width:0.403016"
               id="path15260"
               inkscape:connector-curvature="0" />
          </g>
          <path
             inkscape:connector-curvature="0"
             id="path15071"
             d="m 357.22974,7.995584 -0.13466,1.33127 h -0.84584 a 0.17696746,0.17696746 0 0 0 -0.17624,0.17624 v 9.78334 l -1.23353,0.004 v -9.78653 a 0.17696746,0.17696746 0 0 0 -0.17625,-0.17624 h -0.70647 l -0.12652,-1.29441 z"
             style="color:#000000;font-style:normal;font-variant:normal;font-weight:normal;font-stretch:normal;font-size:medium;line-height:38.5343px;font-family:Impact;-inkscape-font-specification:Impact;font-variant-ligatures:normal;font-variant-position:normal;font-variant-caps:normal;font-variant-numeric:normal;font-variant-alternates:normal;font-feature-settings:normal;text-indent:0;text-align:start;text-decoration:none;text-decoration-line:none;text-decoration-style:solid;text-decoration-color:#000000;letter-spacing:-1.45256px;word-spacing:0px;text-transform:none;writing-mode:lr-tb;direction:ltr;text-orientation:mixed;dominant-baseline:auto;baseline-shift:baseline;text-anchor:start;white-space:normal;shape-padding:0;clip-rule:nonzero;display:inline;overflow:visible;visibility:visible;opacity:1;isolation:auto;mix-blend-mode:normal;color-interpolation:sRGB;color-interpolation-filters:linearRGB;solid-color:#000000;solid-opacity:1;vector-effect:none;fill:#acd600;fill-opacity:1;fill-rule:nonzero;stroke:none;stroke-width:0.131001;stroke-linecap:round;stroke-linejoin:round;stroke-miterlimit:4;stroke-dasharray:none;stroke-dashoffset:0;stroke-opacity:1;paint-order:fill markers stroke;color-rendering:auto;image-rendering:auto;shape-rendering:auto;text-rendering:auto;enable-background:accumulate" />
          <path
             inkscape:connector-curvature="0"
             id="path15073"
             d="m 270.59203,8.027634 h 1.34726 l -0.0786,9.7641 -0.007,0.077 a 0.17696746,0.17696746 0 0 0 0.007,0.0656 0.17696746,0.17696746 0 0 0 0.002,0.004 0.17696746,0.17696746 0 0 0 0.17624,0.16828 h 2.60643 l 0.11697,1.18387 h -4.17 z"
             style="color:#000000;font-style:normal;font-variant:normal;font-weight:normal;font-stretch:normal;font-size:medium;line-height:38.5343px;font-family:Impact;-inkscape-font-specification:Impact;font-variant-ligatures:normal;font-variant-position:normal;font-variant-caps:normal;font-variant-numeric:normal;font-variant-alternates:normal;font-feature-settings:normal;text-indent:0;text-align:start;text-decoration:none;text-decoration-line:none;text-decoration-style:solid;text-decoration-color:#000000;letter-spacing:-1.45256px;word-spacing:0px;text-transform:none;writing-mode:lr-tb;direction:ltr;text-orientation:mixed;dominant-baseline:auto;baseline-shift:baseline;text-anchor:start;white-space:normal;shape-padding:0;clip-rule:nonzero;display:inline;overflow:visible;visibility:visible;opacity:1;isolation:auto;mix-blend-mode:normal;color-interpolation:sRGB;color-interpolation-filters:linearRGB;solid-color:#000000;solid-opacity:1;vector-effect:none;fill:#ff7f2a;fill-opacity:1;fill-rule:nonzero;stroke:none;stroke-width:0.131001;stroke-linecap:round;stroke-linejoin:round;stroke-miterlimit:4;stroke-dasharray:none;stroke-dashoffset:0;stroke-opacity:1;paint-order:fill markers stroke;color-rendering:auto;image-rendering:auto;shape-rendering:auto;text-rendering:auto;enable-background:accumulate" />
          <path
             inkscape:connector-curvature="0"
             id="path15075"
             d="m 229.76024,7.892994 c 0.37412,0 0.67713,0.091 0.92755,0.26753 0.2578,0.18029 0.41709,0.39675 0.49661,0.66322 a 0.17696746,0.17696746 0 0 0 0,0.002 c 0.0814,0.2627 0.13306,0.76938 0.13306,1.48826 v 0.18422 h -1.08935 v -0.49981 c 0,-0.32308 -0.002,-0.51638 -0.0688,-0.67445 -0.0563,-0.13236 -0.20221,-0.23709 -0.34761,-0.23709 -0.16704,0 -0.3117,0.12988 -0.37648,0.28356 a 0.17696746,0.17696746 0 0 0 -0.002,0.004 c -0.0616,0.15341 -0.0812,0.34473 -0.0817,0.58954 -0.0393,1.0186 0.0345,1.40858 0.27234,1.8599 l 1.67087,3.52118 c 0.16846,0.35517 0.15058,0.69382 0.15058,1.59237 0,0.64206 -0.0531,1.11201 -0.14262,1.38573 a 0.17696746,0.17696746 0 0 0 0,0.002 c -0.0867,0.2722 -0.25183,0.49701 -0.51101,0.68886 -0.25516,0.18516 -0.54587,0.27714 -0.89232,0.27714 -0.3814,0 -0.68961,-0.10688 -0.95318,-0.32199 -0.26502,-0.21818 -0.43314,-0.48632 -0.51584,-0.82503 -0.0851,-0.34838 -0.1313,-0.86709 -0.1313,-1.54431 v -0.42134 h 1.08775 v 0.93557 c 0,0.34932 0.007,0.56164 0.072,0.72571 a 0.17696746,0.17696746 0 0 0 0.002,0.004 c 0.0625,0.14617 0.22211,0.25471 0.38128,0.25471 0.0871,0 0.17659,-0.0308 0.24511,-0.0865 0.0676,-0.055 0.11342,-0.12776 0.1458,-0.20827 v -0.002 c 0.0671,-0.16209 0.0913,-0.36351 0.0913,-0.61998 0,-0.26555 0.009,-0.60313 0.005,-0.89871 -0.002,-0.14775 -0.007,-0.28579 -0.0177,-0.4021 -0.0106,-0.11626 -0.0159,-0.20188 -0.0738,-0.30117 l 0.009,0.0142 -1.57476,-3.44905 a 0.17696746,0.17696746 0 0 0 -0.0177,-0.0288 c -0.10741,-0.15147 -0.20522,-0.37817 -0.28515,-0.67603 -0.0756,-0.2908 -0.11696,-0.67611 -0.11696,-1.15184 0,-0.68964 0.0616,-1.18963 0.16332,-1.47542 v -0.002 c 0.10741,-0.2936 0.27149,-0.51187 0.50144,-0.67123 a 0.17696746,0.17696746 0 0 0 0.002,0 c 0.22853,-0.16173 0.50328,-0.24511 0.84265,-0.24511 z"
             style="color:#000000;font-style:normal;font-variant:normal;font-weight:normal;font-stretch:normal;font-size:medium;line-height:81.061px;font-family:Impact;-inkscape-font-specification:Impact;font-variant-ligatures:normal;font-variant-position:normal;font-variant-caps:normal;font-variant-numeric:normal;font-variant-alternates:normal;font-feature-settings:normal;text-indent:0;text-align:start;text-decoration:none;text-decoration-line:none;text-decoration-style:solid;text-decoration-color:#000000;letter-spacing:-3.05562px;word-spacing:0px;text-transform:none;writing-mode:lr-tb;direction:ltr;text-orientation:mixed;dominant-baseline:auto;baseline-shift:baseline;text-anchor:start;white-space:normal;shape-padding:0;clip-rule:nonzero;display:inline;overflow:visible;visibility:visible;opacity:1;isolation:auto;mix-blend-mode:normal;color-interpolation:sRGB;color-interpolation-filters:linearRGB;solid-color:#000000;solid-opacity:1;vector-effect:none;fill:#ffc800;fill-opacity:1;fill-rule:nonzero;stroke:none;stroke-width:0.131001;stroke-linecap:round;stroke-linejoin:round;stroke-miterlimit:4;stroke-dasharray:none;stroke-dashoffset:0;stroke-opacity:1;paint-order:fill markers stroke;color-rendering:auto;image-rendering:auto;shape-rendering:auto;text-rendering:auto;enable-background:accumulate" />
          <path
             inkscape:connector-curvature="0"
             id="path15077"
             d="m 306.1817,8.027684 -0.69403,7.27416 -0.39046,3.98775 h 1.26371 l 0.30633,-3.11267 a 0.17696746,0.17696746 0 0 1 0.17553,-0.15996 h 0.82479 a 0.17696746,0.17696746 0 0 1 0.17464,0.15996 l 0.30634,3.11267 h 1.2637 l -0.39682,-4.06273 a 0.17696746,0.17696746 0 0 1 0,-0.002 l -0.68857,-7.19732 z m 1.0717,1.87271 a 0.17696746,0.17696746 0 0 1 0.17741,0.1628 l 0.30449,3.75549 a 0.17696746,0.17696746 0 0 1 0,0.004 l 0.032,0.49105 a 0.17696746,0.17696746 0 0 1 -0.17642,0.18745 h -0.67117 a 0.17696746,0.17696746 0 0 1 -0.17741,-0.18745 l 0.032,-0.49105 a 0.17696746,0.17696746 0 0 1 0,-0.004 l 0.30451,-3.75549 a 0.17696746,0.17696746 0 0 1 0.17465,-0.1628 z"
             style="color:#000000;font-style:normal;font-variant:normal;font-weight:normal;font-stretch:normal;font-size:medium;line-height:38.5343px;font-family:Impact;-inkscape-font-specification:Impact;font-variant-ligatures:normal;font-variant-position:normal;font-variant-caps:normal;font-variant-numeric:normal;font-variant-alternates:normal;font-feature-settings:normal;text-indent:0;text-align:start;text-decoration:none;text-decoration-line:none;text-decoration-style:solid;text-decoration-color:#000000;letter-spacing:-1.45256px;word-spacing:0px;text-transform:none;writing-mode:lr-tb;direction:ltr;text-orientation:mixed;dominant-baseline:auto;baseline-shift:baseline;text-anchor:start;white-space:normal;shape-padding:0;clip-rule:nonzero;display:inline;overflow:visible;visibility:visible;opacity:1;isolation:auto;mix-blend-mode:normal;color-interpolation:sRGB;color-interpolation-filters:linearRGB;solid-color:#000000;solid-opacity:1;vector-effect:none;fill:#2cc1ff;fill-opacity:1;fill-rule:nonzero;stroke:none;stroke-width:0.131001;stroke-linecap:round;stroke-linejoin:round;stroke-miterlimit:4;stroke-dasharray:none;stroke-dashoffset:0;stroke-opacity:1;paint-order:fill markers stroke;color-rendering:auto;image-rendering:auto;shape-rendering:auto;text-rendering:auto;enable-background:accumulate" />
        </g>
        <g
           transform="matrix(9.6188546,0,0,9.6188546,-524.94344,-1721.3738)"
           style="display:inline;fill:#000000;stroke-width:0.0680961"
           id="g15091"
           inkscape:export-xdpi="600"
           inkscape:export-ydpi="600">
          <path
             style="color:#000000;font-style:normal;font-variant:normal;font-weight:bold;font-stretch:normal;font-size:medium;line-height:19.2276px;font-family:'Adobe Garamond Pro';-inkscape-font-specification:'Adobe Garamond Pro Bold';font-variant-ligatures:normal;font-variant-position:normal;font-variant-caps:normal;font-variant-numeric:normal;font-variant-alternates:normal;font-feature-settings:normal;text-indent:0;text-align:start;text-decoration:none;text-decoration-line:none;text-decoration-style:solid;text-decoration-color:#000000;letter-spacing:0px;word-spacing:0px;text-transform:none;writing-mode:lr-tb;direction:ltr;text-orientation:mixed;dominant-baseline:auto;baseline-shift:baseline;text-anchor:start;white-space:normal;shape-padding:0;clip-rule:nonzero;display:inline;overflow:visible;visibility:visible;opacity:1;isolation:auto;mix-blend-mode:normal;color-interpolation:sRGB;color-interpolation-filters:linearRGB;solid-color:#000000;solid-opacity:1;vector-effect:none;fill:#ffc800;fill-opacity:1;fill-rule:nonzero;stroke:none;stroke-width:0.136192;stroke-linecap:round;stroke-linejoin:miter;stroke-miterlimit:4;stroke-dasharray:none;stroke-dashoffset:0;stroke-opacity:1;paint-order:normal;color-rendering:auto;image-rendering:auto;shape-rendering:auto;text-rendering:auto;enable-background:accumulate"
             d="m 54.01103,172.12587 c -0.394577,0.17648 -0.592349,0.6342 -0.488465,1.20123 0.114075,0.62267 1.044306,0.92808 1.781179,0.98476 0.422629,0.0325 0.754374,0.0511 0.899335,0.33649 0.08827,0.17375 0.03714,0.39874 -0.157474,0.56304 -0.216174,0.18249 -0.967952,0.0431 -0.83419,-0.34028 0.08248,-0.13607 -0.07672,-0.15804 -0.186174,-0.0164 -0.200333,0.30702 -0.01972,0.59883 0.258003,0.73174 0.37532,0.17966 0.841486,0.14966 1.226831,-0.0834 0.16948,-0.14048 0.390176,-0.32385 0.365054,-0.69227 -0.04905,-0.71941 -0.600684,-0.95183 -1.142567,-0.98231 -0.541868,-0.0309 -1.408278,-0.16799 -1.407156,-0.63716 0.0019,-0.80814 0.957368,-0.45341 1.159856,-0.2267 0.202049,0.22624 0.383575,0.0631 0.224583,-0.23124 -0.319136,-0.53497 -1.149838,-0.85302 -1.698815,-0.60748 z"
             id="path15081"
             inkscape:connector-curvature="0"
             sodipodi:nodetypes="assasccscszssca"
             inkscape:transform-center-x="12.677628"
             inkscape:transform-center-y="-13.768518" />
          <path
             style="color:#000000;font-style:normal;font-variant:normal;font-weight:bold;font-stretch:normal;font-size:medium;line-height:19.2276px;font-family:'Adobe Garamond Pro';-inkscape-font-specification:'Adobe Garamond Pro Bold';font-variant-ligatures:normal;font-variant-position:normal;font-variant-caps:normal;font-variant-numeric:normal;font-variant-alternates:normal;font-feature-settings:normal;text-indent:0;text-align:start;text-decoration:none;text-decoration-line:none;text-decoration-style:solid;text-decoration-color:#000000;letter-spacing:0px;word-spacing:0px;text-transform:none;writing-mode:lr-tb;direction:ltr;text-orientation:mixed;dominant-baseline:auto;baseline-shift:baseline;text-anchor:start;white-space:normal;shape-padding:0;clip-rule:nonzero;display:inline;overflow:visible;visibility:visible;opacity:1;isolation:auto;mix-blend-mode:normal;color-interpolation:sRGB;color-interpolation-filters:linearRGB;solid-color:#000000;solid-opacity:1;vector-effect:none;fill:#ff7f2a;fill-opacity:1;fill-rule:nonzero;stroke:none;stroke-width:0.136192;stroke-linecap:round;stroke-linejoin:miter;stroke-miterlimit:4;stroke-dasharray:none;stroke-dashoffset:0;stroke-opacity:1;paint-order:normal;color-rendering:auto;image-rendering:auto;shape-rendering:auto;text-rendering:auto;enable-background:accumulate"
             d="m 57.013361,175.30594 0.02443,-9.6e-4 c 0.359585,-0.0418 1.429305,-0.81575 1.676734,-1.54663 0.02798,-0.0748 0.03561,-0.0925 -0.01016,-0.26938 -0.01026,-0.0395 -0.103199,-0.0365 -0.09736,0.0532 0.0046,0.0712 -0.03052,0.1568 -0.05482,0.20694 -0.02831,0.0585 -0.730478,0.96453 -0.929714,0.82434 -0.304824,-2.0629 -1.025906,-3.41965 -2.888364,-3.97684 -1.371325,-0.41025 -1.570719,0.62564 -0.314976,0.88947 1.562646,0.32831 2.698512,1.48816 2.59419,3.82029 z"
             id="path15083"
             inkscape:connector-curvature="0"
             sodipodi:nodetypes="cccssscsscc"
             inkscape:transform-center-x="12.411746"
             inkscape:transform-center-y="-20.337752" />
          <path
             style="color:#000000;font-style:normal;font-variant:normal;font-weight:bold;font-stretch:normal;font-size:medium;line-height:19.2276px;font-family:'Adobe Garamond Pro';-inkscape-font-specification:'Adobe Garamond Pro Bold';font-variant-ligatures:normal;font-variant-position:normal;font-variant-caps:normal;font-variant-numeric:normal;font-variant-alternates:normal;font-feature-settings:normal;text-indent:0;text-align:start;text-decoration:none;text-decoration-line:none;text-decoration-style:solid;text-decoration-color:#000000;letter-spacing:0px;word-spacing:0px;text-transform:none;writing-mode:lr-tb;direction:ltr;text-orientation:mixed;dominant-baseline:auto;baseline-shift:baseline;text-anchor:start;white-space:normal;shape-padding:0;clip-rule:nonzero;display:inline;overflow:visible;visibility:visible;opacity:1;isolation:auto;mix-blend-mode:normal;color-interpolation:sRGB;color-interpolation-filters:linearRGB;solid-color:#000000;solid-opacity:1;vector-effect:none;fill:#2cc1ff;fill-opacity:1;fill-rule:nonzero;stroke:none;stroke-width:0.136192;stroke-linecap:round;stroke-linejoin:miter;stroke-miterlimit:4;stroke-dasharray:none;stroke-dashoffset:0;stroke-opacity:1;paint-order:normal;color-rendering:auto;image-rendering:auto;shape-rendering:auto;text-rendering:auto;enable-background:accumulate"
             d="m 60.2622,172.52768 c -0.03749,0.01 -0.07396,0.0203 -0.109103,0.0325 l -5.81e-4,9e-5 c -0.189945,0.0661 -0.342126,0.16512 -0.422249,0.22791 -0.26869,0.17211 -0.454203,0.46251 -0.624727,0.78042 -0.170974,0.31879 -0.38082,0.63447 -0.577757,0.92898 -0.193284,0.28906 -0.302745,0.34304 -0.863772,0.83687 -0.561022,0.49383 -1.67301,1.4417 -2.066969,1.65791 -0.72967,0.40043 -1.976117,0.34713 -1.768177,0.34544 -0.106233,0.16798 0.20545,0.55145 0.66573,0.65901 1.796188,-0.13884 3.59944,-2.17005 4.318518,-2.39382 0.04071,-0.17887 0.153835,-0.39159 0.22649,-0.61745 0.175807,-0.54651 0.289692,-0.76719 0.437261,-0.89192 0.175262,-0.14814 0.359168,-0.1179 0.461127,-0.0848 0.09157,0.0107 0.113681,0.004 0.21487,-0.018 0.160896,-0.0352 0.212944,10e-4 0.157196,0.14435 -0.03881,0.0995 -0.112169,0.22871 -0.142689,0.25275 -0.0827,0.47868 -0.148568,1.48902 -0.11831,1.5378 0.541505,1.1954 -0.849567,2.3804 -1.270221,2.32178 0.01043,0.0281 0.03648,0.0436 0.05323,0.0488 0.01673,0.005 0.02957,0.005 0.04287,0.005 0.05312,-0.002 0.121106,-0.0201 0.23943,-0.0597 l 0.0013,-1.9e-4 0.0012,-1.7e-4 c 0.495432,-0.18657 1.35761,-0.75262 1.567293,-1.20978 0.34349,-0.62614 0.414127,-0.88126 0.113682,-1.86627 -0.113792,-0.76458 0.12305,-1.16849 0.316126,-1.72325 0.21247,-0.29174 0.487738,-0.4336 0.550268,-0.84138 0.01472,-0.0999 -0.162719,-0.14484 -0.236014,-0.14826 -0.116595,-0.004 -0.225223,0.0386 -0.338544,0.0682 -0.394481,0.13052 -0.39596,-0.0765 -0.827604,0.008 z"
             id="path15085"
             inkscape:connector-curvature="0"
             sodipodi:nodetypes="cccccccsccccscsscccccccccccccccc" />
          <path
             style="color:#000000;font-style:normal;font-variant:normal;font-weight:bold;font-stretch:normal;font-size:medium;line-height:19.2276px;font-family:'Adobe Garamond Pro';-inkscape-font-specification:'Adobe Garamond Pro Bold';font-variant-ligatures:normal;font-variant-position:normal;font-variant-caps:normal;font-variant-numeric:normal;font-variant-alternates:normal;font-feature-settings:normal;text-indent:0;text-align:start;text-decoration:none;text-decoration-line:none;text-decoration-style:solid;text-decoration-color:#000000;letter-spacing:0px;word-spacing:0px;text-transform:none;writing-mode:lr-tb;direction:ltr;text-orientation:mixed;dominant-baseline:auto;baseline-shift:baseline;text-anchor:start;white-space:normal;shape-padding:0;clip-rule:nonzero;display:inline;overflow:visible;visibility:visible;opacity:1;isolation:auto;mix-blend-mode:normal;color-interpolation:sRGB;color-interpolation-filters:linearRGB;solid-color:#000000;solid-opacity:1;vector-effect:none;fill:#acd600;fill-opacity:0.996078;fill-rule:nonzero;stroke:none;stroke-width:0.136192;stroke-linecap:round;stroke-linejoin:miter;stroke-miterlimit:4;stroke-dasharray:none;stroke-dashoffset:0;stroke-opacity:1;paint-order:normal;color-rendering:auto;image-rendering:auto;shape-rendering:auto;text-rendering:auto;enable-background:accumulate"
             d="m 56.454139,177.77558 c 0.0062,0.15044 0.104613,0.20715 0.177335,0.32738 -0.333698,0.30475 -0.635806,0.52028 -1.008165,0.67564 l -0.202848,0.0847 c -0.301746,0.1259 0.300399,0.50318 0.493286,0.33271 l 0.145576,-0.12866 c 0.314843,-0.27826 0.717756,-0.54596 0.902423,-0.6638 0.356614,0.15141 1.037183,0.10231 1.280858,0.029 0.367636,-0.0683 0.224151,-0.24849 -0.03899,-0.24711 -0.467905,0.002 -0.976135,-0.0712 -1.234395,-0.24009 -0.254227,-0.16627 -0.384293,-0.35934 -0.417325,-0.34929 -0.07725,0.0237 -0.211908,0.13284 -0.546025,0.31398 z"
             id="path15087"
             inkscape:connector-curvature="0"
             sodipodi:nodetypes="ccssssccssscc" />
          <path
             style="color:#000000;font-style:normal;font-variant:normal;font-weight:normal;font-stretch:normal;font-size:medium;line-height:normal;font-family:sans-serif;font-variant-ligatures:normal;font-variant-position:normal;font-variant-caps:normal;font-variant-numeric:normal;font-variant-alternates:normal;font-feature-settings:normal;text-indent:0;text-align:start;text-decoration:none;text-decoration-line:none;text-decoration-style:solid;text-decoration-color:#000000;letter-spacing:normal;word-spacing:normal;text-transform:none;writing-mode:lr-tb;direction:ltr;text-orientation:mixed;dominant-baseline:auto;baseline-shift:baseline;text-anchor:start;white-space:normal;shape-padding:0;clip-rule:nonzero;display:inline;overflow:visible;visibility:visible;opacity:1;isolation:auto;mix-blend-mode:normal;color-interpolation:sRGB;color-interpolation-filters:linearRGB;solid-color:#000000;solid-opacity:1;vector-effect:none;fill:#2cc1ff;fill-opacity:1;fill-rule:evenodd;stroke:none;stroke-width:0.136192;stroke-linecap:round;stroke-linejoin:miter;stroke-miterlimit:4;stroke-dasharray:none;stroke-dashoffset:0;stroke-opacity:1;paint-order:normal;color-rendering:auto;image-rendering:auto;shape-rendering:auto;text-rendering:auto;enable-background:accumulate"
             d="m 58.450156,175.82256 c -0.05302,0.11435 -0.04734,0.22833 0.04864,0.33674 0.217629,0.29032 1.149117,0.19812 1.378638,-0.18495 -0.385778,0.23955 -1.265395,-0.0467 -1.023479,-0.44456 -0.04058,-0.11135 -0.299392,0.0811 -0.40379,0.29326 z"
             id="path15089"
             inkscape:connector-curvature="0"
             sodipodi:nodetypes="cccccc" />
        </g>
      </g>
    </g>
  </g>
</svg>
